<svg width="69" height="69" viewBox="0 0 69 69" fill="none" xmlns="http://www.w3.org/2000/svg">
<circle cx="34.5" cy="34.5" r="34.5" fill="white"/>
<path d="M52.2227 42.72C50.5427 42.72 49.0187 42.348 47.6507 41.604C46.3067 40.86 45.2387 39.792 44.4467 38.4C43.6787 37.008 43.2947 35.328 43.2947 33.36C43.2947 31.392 43.7267 29.712 44.5907 28.32C45.4547 26.928 46.5947 25.86 48.0107 25.116C49.4267 24.372 50.9507 24 52.5827 24C53.6867 24 54.6707 24.18 55.5347 24.54C56.4227 24.876 57.1787 25.332 57.8027 25.908L55.3187 29.184C55.0067 28.92 54.6467 28.704 54.2387 28.536C53.8547 28.368 53.4107 28.284 52.9067 28.284C52.0667 28.284 51.3347 28.488 50.7107 28.896C50.0867 29.304 49.5947 29.892 49.2347 30.66C48.8747 31.428 48.6947 32.328 48.6947 33.36C48.6947 34.392 48.8747 35.292 49.2347 36.06C49.5947 36.828 50.0747 37.416 50.6747 37.824C51.2987 38.232 51.9947 38.436 52.7627 38.436C53.3627 38.436 53.9267 38.328 54.4547 38.112C54.9827 37.896 55.4747 37.62 55.9307 37.284L58.0187 40.524C57.2747 41.196 56.3987 41.736 55.3907 42.144C54.3827 42.528 53.3267 42.72 52.2227 42.72Z" fill="#222222"/>
<path d="M30.3464 42.288V24.432H34.6664L35.0264 27.564H35.1704C35.8184 26.364 36.5864 25.476 37.4744 24.9C38.3864 24.3 39.3104 24 40.2464 24C40.7504 24 41.1704 24.036 41.5064 24.108C41.8424 24.156 42.1304 24.24 42.3704 24.36L41.3624 28.86C41.0744 28.788 40.7984 28.74 40.5344 28.716C40.2704 28.668 39.9464 28.644 39.5624 28.644C38.8904 28.644 38.1824 28.884 37.4384 29.364C36.7184 29.844 36.1184 30.696 35.6384 31.92V42.288H30.3464Z" fill="#222222"/>
<path d="M17.488 49.884C16.096 49.884 14.824 49.716 13.672 49.38C12.544 49.068 11.644 48.576 10.972 47.904C10.324 47.256 10 46.404 10 45.348C10 44.604 10.216 43.932 10.648 43.332C11.104 42.732 11.74 42.204 12.556 41.748V41.604C12.1 41.292 11.704 40.896 11.368 40.416C11.056 39.912 10.9 39.3 10.9 38.58C10.9 37.932 11.092 37.32 11.476 36.744C11.86 36.144 12.34 35.64 12.916 35.232V35.088C12.268 34.656 11.704 34.032 11.224 33.216C10.744 32.4 10.504 31.476 10.504 30.444C10.504 29.028 10.852 27.84 11.548 26.88C12.244 25.92 13.156 25.2 14.284 24.72C15.412 24.24 16.612 24 17.884 24C18.388 24 18.868 24.036 19.324 24.108C19.804 24.18 20.248 24.288 20.656 24.432H27.172V28.284H24.184V28.428C24.424 28.74 24.604 29.088 24.724 29.472C24.844 29.832 24.904 30.24 24.904 30.696C24.904 32.04 24.592 33.156 23.968 34.044C23.344 34.908 22.492 35.556 21.412 35.988C20.356 36.42 19.18 36.636 17.884 36.636C17.572 36.636 17.236 36.612 16.876 36.564C16.516 36.492 16.132 36.396 15.724 36.276C15.508 36.468 15.34 36.66 15.22 36.852C15.124 37.044 15.076 37.296 15.076 37.608C15.076 38.04 15.28 38.376 15.688 38.616C16.096 38.832 16.792 38.94 17.776 38.94H20.656C22.864 38.94 24.544 39.3 25.696 40.02C26.872 40.716 27.46 41.868 27.46 43.476C27.46 44.7 27.052 45.792 26.236 46.752C25.42 47.736 24.268 48.504 22.78 49.056C21.292 49.608 19.528 49.884 17.488 49.884ZM17.884 33.432C18.364 33.432 18.784 33.324 19.144 33.108C19.504 32.868 19.792 32.532 20.008 32.1C20.224 31.668 20.332 31.116 20.332 30.444C20.332 29.484 20.092 28.764 19.612 28.284C19.156 27.804 18.58 27.564 17.884 27.564C17.188 27.564 16.6 27.804 16.12 28.284C15.664 28.764 15.436 29.484 15.436 30.444C15.436 31.116 15.544 31.668 15.76 32.1C16 32.532 16.3 32.868 16.66 33.108C17.02 33.324 17.428 33.432 17.884 33.432ZM18.316 46.572C19.108 46.572 19.804 46.476 20.404 46.284C21.028 46.092 21.52 45.828 21.88 45.492C22.24 45.156 22.42 44.784 22.42 44.376C22.42 43.8 22.18 43.416 21.7 43.224C21.22 43.056 20.548 42.972 19.684 42.972H17.848C17.224 42.972 16.72 42.948 16.336 42.9C15.976 42.876 15.64 42.828 15.328 42.756C14.992 43.044 14.74 43.32 14.572 43.584C14.428 43.872 14.356 44.184 14.356 44.52C14.356 45.192 14.716 45.696 15.436 46.032C16.18 46.392 17.14 46.572 18.316 46.572Z" fill="#222222"/>
</svg>
